inDegrees=no
num_controls=7
num_derivatives=13
num_iterations=97
num_multipliers=7
num_parameters=0
num_slacks=7
num_states=26
objective=0.454568
objective_accelerations=0.043865
objective_balance=0.000807
objective_effort=0.036034
objective_height=0.367755
objective_ligament=0.006106
solver_duration=1179.132943
status=Solve_Succeeded
success=true
DataType=double
version=3
OpenSimVersion=4.5
endheader
time	/jointset/ground_pelvis/pelvis_tilt/value	/jointset/ground_pelvis/pelvis_tx/value	/jointset/ground_pelvis/pelvis_ty/value	/jointset/hip_r/hip_flexion_r/value	/jointset/hip_r/hip_adduction_r/value	/jointset/hip_r/hip_rotation_r/value	/jointset/back/lumbar_extension/value	/jointset/patellofemoral_r/patellar_flexion_r/value	/jointset/knee_r/knee_flexion_r/value	/jointset/knee_r/knee_adduction_r/value	/jointset/knee_r/knee_rotation_r/value	/jointset/ankle_r/ankle_angle_r/value	/jointset/subtalar_r/subtalar_angle_r/value	/jointset/ground_pelvis/pelvis_tilt/speed	/jointset/ground_pelvis/pelvis_tx/speed	/jointset/ground_pelvis/pelvis_ty/speed	/jointset/hip_r/hip_flexion_r/speed	/jointset/hip_r/hip_adduction_r/speed	/jointset/hip_r/hip_rotation_r/speed	/jointset/back/lumbar_extension/speed	/jointset/patellofemoral_r/patellar_flexion_r/speed	/jointset/knee_r/knee_flexion_r/speed	/jointset/knee_r/knee_adduction_r/speed	/jointset/knee_r/knee_rotation_r/speed	/jointset/ankle_r/ankle_angle_r/speed	/jointset/subtalar_r/subtalar_angle_r/speed	/forceset/tau_hip_flexion_r	/forceset/tau_hip_adduction_r	/forceset/tau_hip_rotation_r	/forceset/tau_knee_flexion_r	/forceset/tau_ankle_angle_r	/forceset/tau_subtalar_angle_r	/forceset/tau_lumbar_extension	lambda_cid13_p0	lambda_cid14_p0	lambda_cid14_p1	lambda_cid14_p2	lambda_cid14_p3	lambda_cid14_p4	lambda_cid14_p5	/jointset/ground_pelvis/pelvis_tilt/accel	/jointset/ground_pelvis/pelvis_tx/accel	/jointset/ground_pelvis/pelvis_ty/accel	/jointset/hip_r/hip_flexion_r/accel	/jointset/hip_r/hip_adduction_r/accel	/jointset/hip_r/hip_rotation_r/accel	/jointset/back/lumbar_extension/accel	/jointset/patellofemoral_r/patellar_flexion_r/accel	/jointset/knee_r/knee_flexion_r/accel	/jointset/knee_r/knee_adduction_r/accel	/jointset/knee_r/knee_rotation_r/accel	/jointset/ankle_r/ankle_angle_r/accel	/jointset/subtalar_r/subtalar_angle_r/accel	gamma_cid13_p0	gamma_cid14_p0	gamma_cid14_p1	gamma_cid14_p2	gamma_cid14_p3	gamma_cid14_p4	gamma_cid14_p5
1	-0.1997500994928126	-0.001085254463622664	0.6610920325804946	1.326945498878016	-0.254693721648853	0.09463065275013677	-0.7853978457430243	1.465179250764285	1.465179250764342	0.04956892521660863	0.1745253949504119	0.4362627628184513	0.1403736646309782	0.07226780767566356	0.005394997411743633	0.01483080600679311	-0.1024813760500001	-0.00176996837299113	-0.006309602055399678	-1.924499278228441e-05	-0.01705982019525062	-0.01705982019525041	0.0007225978464012928	1.258922114849109e-05	0.01290954861536118	0.002700111891027444	-0.3101146100300764	0.02427306450234986	0.05096112838239107	-0.4624780561154987	-0.02500042103190616	-0.01797324100979855	0.343251900743398	-0.04063759170226876	-60.33877459615143	-21.55329889229387	7.493456998206875	8.317389778625687	-758.9729994947236	66.65233386631277	1.236256423448895	0.1416277651138587	1.639919064287582	-4.99739179464277	-0.0738276230994344	-1.502633306326006	-0.006912446321728142	-4.734228743032251	-4.734228743032149	0.07133984496950883	0.007145609872210867	-1.202210256757446	-0.6486364545734692	2.463985311241527e-10	-2.217709950368643e-09	-5.774671634810748e-09	1.352819029456429e-09	4.593970420493547e-09	-5.828928288357109e-09	-1.19775673643604e-08
1.01	-0.1989667577833612	-0.001024022506802203	0.6613222074064045	1.325671867070845	-0.2547150121027235	0.09449232958808156	-0.7853954858378799	1.464772082244796	1.464772082244826	0.04957941513977765	0.174525644671358	0.4363320422758823	0.1403685527271243	0.08435129601154548	0.006874404295833071	0.03120446051867174	-0.1522309884096993	-0.002488117214219757	-0.02135196732742714	0.0007053640737047054	-0.06438278259860424	-0.06438278259860239	0.001380161743461238	3.401338671336175e-05	0.0009735600842920811	-0.003709826413911861	-0.3111108964964081	0.02437418855221034	0.05095838725165664	-0.462460218463043	-0.02537527508669006	-0.01792823791282161	0.3445644636062666	-0.04063405969027666	-60.50174295405758	-21.55830886046249	7.489709743079485	8.097586052913359	-759.877301805724	66.66325662304922	1.18700955627562	0.1545507541223149	1.636131735140623	-4.961646490338374	-0.07080733532051321	-1.5045795152392	0.1442682887188186	-4.732664800088363	-4.732664800088179	0.06368142516055585	-0.0008617462032155989	-1.185211080759437	-0.6352738446553198	-1.128873932397117e-10	-4.95125738511081e-09	-6.452101829129414e-09	-2.990117101662353e-09	1.02061255538794e-08	-1.050783225567742e-08	-1.653802057521387e-08
1.02	-0.1980640582870273	-0.0009473057603276609	0.6617161273955336	1.323901159033336	-0.254743483809143	0.09420367449778495	-0.7853794557008534	1.463891417139053	1.463891417139056	0.04959662405453506	0.1745260081207386	0.436282778262147	0.1402997211749808	0.09613936505213856	0.008491955342559943	0.0475798386506481	-0.2018966221175943	-0.003206218882885802	-0.03637598770337837	0.002714801363583162	-0.1117591374460161	-0.1117591374460133	0.002066396163973738	3.533490820501561e-05	-0.01079914562588916	-0.01004381776689798	-0.3121071829627367	0.0244753126020698	0.05095564612092459	-0.4624423808105872	-0.02575012914147496	-0.01788323481584708	0.3458770264691385	-0.04063635554796641	-60.67236706941898	-21.56178643805865	7.482436951365033	7.885652545533149	-760.92279015888	66.67441090756091	1.177172564391135	0.1692565976413383	1.640263788307126	-4.980596064281936	-0.07381818858691364	-1.498964327110755	0.250053198356309	-4.744907231843907	-4.744907231843946	0.07707394966001715	0.003125081057559469	-1.169553692579884	-0.6334470641828296	-8.398666191687787e-10	-4.900479597863651e-09	-3.283585955014254e-09	-8.789982704528027e-09	9.136206808802303e-09	-1.322624851948943e-08	-1.671594812803829e-08
1.03	-0.1970448629822179	-0.0008538086382901863	0.6622737438449066	1.321634368250466	-0.2547791097234559	0.09376491318317978	-0.7853373605310906	1.462536747897411	1.462536747897382	0.04962084346438789	0.1745263155904956	0.4361163798516748	0.1401678974190063	0.1076579650651985	0.0102219854587898	0.06393694986392703	-0.2514303470392175	-0.003916782238172751	-0.05136911478288548	0.005875550282295971	-0.159180992691053	-0.1591809926910569	0.002783430003019726	2.715388898127029e-05	-0.02247597603858906	-0.01631256817998376	-0.3126467957770165	0.02456579651020276	0.05092297921857285	-0.4619506981458244	-0.02636492822830316	-0.01779166435157057	0.3467114346769282	-0.04065405103462177	-60.8835232933916	-21.53908419900407	7.456081035277	7.869282124231558	-761.3913562886208	66.66322903052114	1.132944171961525	0.1770552704087142	1.632456382548872	-4.935082913825892	-0.06934939554472416	-1.498415774539644	0.374783392379332	-4.741766623555586	-4.74176662355655	0.06991188944930891	-0.002643901102803203	-1.166064164009075	-0.6223359104541666	-1.570597817562799e-09	-4.821290328759443e-09	-7.582573326199371e-11	-1.460471493465643e-08	7.998103636393915e-09	-1.592465980673501e-08	-1.684915603129097e-08
1.04	-0.1959117335868389	-0.0007425754047314064	0.6629947357253544	1.318873175776833	-0.2548217760686304	0.09317643482254577	-0.7852585183413818	1.460707671712773	1.460707671712714	0.04965241197031502	0.1745265704085208	0.4358333498473936	0.1399736367827846	0.1189261831661828	0.01203917764682097	0.08025492486562345	-0.3007769602697759	-0.00461430505526639	-0.06631939690915102	0.01006420535103011	-0.2066405260449707	-0.2066405260449809	0.003536215378962128	2.480456213930805e-05	-0.03412546438705057	-0.02253119381637843	-0.3131864085913004	0.02465628041833839	0.05089031231622618	-0.4614590154810619	-0.02697972731513022	-0.01770009388728862	0.3475458428847141	-0.04067762600028935	-61.10244659810021	-21.51496749326987	7.426330819786452	7.859012277975421	-762.0032223169694	66.65229200764608	1.127096181976004	0.1866890120016003	1.632436545990622	-4.943173726068946	-0.07121008094824571	-1.490395336462436	0.4556344283605331	-4.752442853620073	-4.752442853620042	0.0842242570392961	0.004291419533902495	-1.164085279732205	-0.6234221088445961	-2.318163684872367e-09	-5.425096853178495e-09	3.556359831199789e-10	-2.002589288351901e-08	8.67893172736618e-09	-1.843041992548796e-08	-2.09221628906922e-08
1.05	-0.1946672167973185	-0.0006127200549911674	0.6638786365658262	1.315619628493057	-0.2548713162634818	0.09243872944788924	-0.7851326653558713	1.458403911833344	1.4584039118333	0.04969166413856355	0.1745268033851566	0.4354339410632015	0.139717517407106	0.1299287772967614	0.0139478748280931	0.0965109597333737	-0.3498812006989307	-0.005288027613379386	-0.08120760355647927	0.01527933560565176	-0.2541077556439372	-0.254107755643909	0.004318863203303964	2.001343412152945e-05	-0.04575406447311624	-0.02867699992035382	-0.3133497342528185	0.02468170989549571	0.05084203318061533	-0.4607480088245922	-0.02736555634536057	-0.01760439104202858	0.3480836618706329	-0.04070992269715846	-61.21693400548351	-21.46546760394339	7.386476806621049	7.78002182589629	-762.1907320804993	66.63528960676591	1.079581442424268	0.1953593409801255	1.620040221577243	-4.886355315041317	-0.06459992861840011	-1.485926927080257	0.5803939021250626	-4.743308262687523	-4.743308262681831	0.07598519842425396	-0.003136794125259861	-1.161913751660947	-0.6078105005422245	-3.066255635585546e-09	-6.050246996145145e-09	7.003383712091453e-10	-2.543477226109204e-08	9.416601420319079e-09	-2.09301596952255e-08	-2.511828846747306e-08
1.06	-0.1933141259837279	-0.0004632978794801545	0.6649246684078576	1.311876577582248	-0.2549274230009889	0.09155256328711564	-0.7849494727521902	1.455625590607994	1.455625590607966	0.04973888281571467	0.1745269339674805	0.4349183130024247	0.1394004098425142	0.1406409879803605	0.01595254280097574	0.1126811251775191	-0.3986776856761876	-0.00592761358651553	-0.09601155413229746	0.02153212898475594	-0.3015527952290081	-0.3015527952289437	0.005129517159350678	4.325699878627773e-06	-0.05736931970387037	-0.03472883159905835	-0.3135130599143364	0.02470713937265268	0.0507937540450061	-0.4600370021681228	-0.02775138537559142	-0.01750868819676946	0.3486214808565517	-0.04074826258658111	-61.33935103664834	-21.41464296436915	7.343312769838995	7.706305865681209	-762.5234713279858	66.61897067962606	1.069019492580123	0.205883170323696	1.615262661269664	-4.881622635689362	-0.06438276395286729	-1.473544122160416	0.6631670532570225	-4.748004850840994	-4.74800485084136	0.08982548338026689	0.002112098288860187	-1.161416308669904	-0.6046272237904122	-3.903255749516059e-09	-6.83292725513186e-09	1.252905559909562e-09	-3.144366245106899e-08	1.03519043045786e-08	-2.364094473865329e-08	-2.932897077810599e-08
1.07	-0.1918551967706968	-0.0002933355714823312	0.6661319202432	1.307647041338371	-0.2549897442946362	0.0905188125218226	-0.7846988235368588	1.4523730287784	1.452373028778382	0.04979433726111446	0.1745268859069282	0.4342865963648453	0.1390232898132835	0.1511108753951645	0.0180572618811363	0.1287494680069217	-0.4471817312505011	-0.006529793030490013	-0.1107197688042258	0.0287478417245219	-0.348946049464758	-0.3489460494647585	0.005966359529207275	-1.313779320801043e-05	-0.06897225653997423	-0.04067592353679181	-0.313319048642822	0.02468650104086377	0.05072539743439877	-0.4590320538420912	-0.02800684702529579	-0.01740387790114354	0.3488469328928703	-0.04079424506929373	-61.38789086624757	-21.34091915569325	7.289634617197022	7.599808463102514	-762.4067243034535	66.58405814002522	1.030876461434693	0.2153700121535218	1.599648700084969	-4.827621398602332	-0.05711168830377159	-1.466642423250851	0.7732925307415418	-4.732956565261491	-4.732956565271003	0.08136654418797529	-0.003564002861792205	-1.159470370709987	-0.5868666795516104	-4.744985021064516e-09	-7.623986775609003e-09	1.816529386940366e-09	-3.748446810979084e-08	1.129771959263103e-08	-2.63629555945114e-08	-3.354042738309276e-08
